<?xml version="1.0" encoding="UTF-8" standalone="no"?>
<!DOCTYPE svg PUBLIC "-//W3C//DTD SVG 1.1//EN" "http://www.w3.org/Graphics/SVG/1.1/DTD/svg11.dtd">
<svg width="100%" height="100%" viewBox="0 0 75 25" version="1.1" xmlns="http://www.w3.org/2000/svg" xmlns:xlink="http://www.w3.org/1999/xlink" xml:space="preserve" xmlns:serif="http://www.serif.com/" style="fill-rule:evenodd;clip-rule:evenodd;stroke-linejoin:round;stroke-miterlimit:2;">
    <path id="path6" d="M5.5,0C3.115,0 0,3.115 0,5.5L0,19.5C0,21.885 3.115,25 5.5,25L69.5,25C71.885,25 75,21.885 75,19.5L75,5.5C75,3.115 71.885,0 69.5,0L5.5,0ZM4.5,2L69.5,2C70.331,2 71,1.669 71,2.5L71,3.5C71,4.331 71.331,21 70.5,21L3.5,21C2.669,21 3,5.331 3,4.5L3,3.5C3,2.669 3.669,2 4.5,2Z" style="fill:rgb(255,72,31);fill-rule:nonzero;"/>
    <g id="rect2" transform="matrix(4.866667,0,0,1.533333,-6.3,-1.3)">
        <path d="M16.5,5.482L16.5,12.518C16.5,14.716 15.938,16.5 15.246,16.5L2.754,16.5C2.062,16.5 1.5,14.716 1.5,12.518L1.5,5.482C1.5,3.284 2.062,1.5 2.754,1.5L15.246,1.5C15.938,1.5 16.5,3.284 16.5,5.482Z" style="fill:url(#_Linear1);"/>
    </g>
    <defs>
        <linearGradient id="_Linear1" x1="0" y1="0" x2="1" y2="0" gradientUnits="userSpaceOnUse" gradientTransform="matrix(0,11.086957,-3.493151,0,9.719178,3.456522)"><stop offset="0" style="stop-color:rgb(239,240,241);stop-opacity:1"/><stop offset="1" style="stop-color:rgb(138,167,195);stop-opacity:1"/></linearGradient>
    </defs>
</svg>
