<?xml version="1.0" encoding="UTF-8" standalone="no"?><!DOCTYPE svg PUBLIC "-//W3C//DTD SVG 1.1//EN" "http://www.w3.org/Graphics/SVG/1.1/DTD/svg11.dtd"><svg width="100%" height="100%" viewBox="0 0 75 25" version="1.1" xmlns="http://www.w3.org/2000/svg" xmlns:xlink="http://www.w3.org/1999/xlink" xml:space="preserve" xmlns:serif="http://www.serif.com/" style="fill-rule:evenodd;clip-rule:evenodd;stroke-linejoin:round;stroke-miterlimit:2;"><path id="path6" d="M5.5,0c-2.385,0 -5.5,3.115 -5.5,5.5l0,14c0,2.385 3.115,5.5 5.5,5.5l64,0c2.385,0 5.5,-3.115 5.5,-5.5l0,-14c0,-2.385 -3.115,-5.5 -5.5,-5.5l-64,0Zm-1,2l65,0c0.831,0 1.5,-0.331 1.5,0.5l0,1c0,0.831 0.331,17.5 -0.5,17.5l-67,0c-0.831,0 -0.5,-15.669 -0.5,-16.5l0,-1c0,-0.831 0.669,-1.5 1.5,-1.5Z" style="fill:#140083;fill-rule:nonzero;"/><path id="path61" serif:id="path6" d="M6.353,1c-2.321,0 -5.353,2.866 -5.353,5.06l0,12.88c0,2.194 3.032,5.06 5.353,5.06l62.293,0c2.321,0 5.353,-2.866 5.353,-5.06l0,-12.88c0,-2.194 -3.032,-5.06 -5.353,-5.06l-62.293,0Zm-0.973,1.84l63.267,0c0.809,0 1.46,-0.305 1.46,0.46l0,0.92c0,0.765 0.322,16.1 -0.487,16.1l-65.213,0c-0.809,0 -0.487,-14.415 -0.487,-15.18l0,-0.92c0,-0.765 0.651,-1.38 1.46,-1.38Z" style="fill:#fff;fill-rule:nonzero;"/><g id="rect2"><path d="M73,7.575l0,9.85c0,3.077 -2.66,5.575 -5.936,5.575l-59.128,0c-3.276,0 -5.936,-2.497 -5.936,-5.575l0,-9.85c0,-3.077 2.66,-5.575 5.936,-5.575l59.128,0c3.276,0 5.936,2.497 5.936,5.575Z" style="fill:url(#_Linear1);"/></g><defs><linearGradient id="_Linear1" x1="0" y1="0" x2="1" y2="0" gradientUnits="userSpaceOnUse" gradientTransform="matrix(0,15.521062,-16.534244,0,40.904113,4.73901)"><stop offset="0" style="stop-color:#b2e0ff;stop-opacity:1"/><stop offset="1" style="stop-color:#3e87ff;stop-opacity:1"/></linearGradient></defs></svg>