<?xml version="1.0" encoding="UTF-8" standalone="no"?><!DOCTYPE svg PUBLIC "-//W3C//DTD SVG 1.1//EN" "http://www.w3.org/Graphics/SVG/1.1/DTD/svg11.dtd"><svg width="100%" height="100%" viewBox="0 0 75 50" version="1.1" xmlns="http://www.w3.org/2000/svg" xmlns:xlink="http://www.w3.org/1999/xlink" xml:space="preserve" xmlns:serif="http://www.serif.com/" style="fill-rule:evenodd;clip-rule:evenodd;stroke-linecap:round;stroke-linejoin:round;stroke-miterlimit:1.5;"><path d="M74,13l0,24c0,6.623 -5.377,12 -12,12l-49,0c-6.623,0 -12,-5.377 -12,-12l0,-24c0,-6.623 5.377,-12 12,-12l49,0c6.623,0 12,5.377 12,12Z" style="fill:#fff;stroke:#ff824c;stroke-width:2px;"/><path d="M72,13.5l0,23c0,6.347 -5.153,11.5 -11.5,11.5l-46,0c-6.347,0 -11.5,-5.153 -11.5,-11.5l-0,-23c0,-6.347 5.153,-11.5 11.5,-11.5l46,0c6.347,0 11.5,5.153 11.5,11.5Z" style="fill:#fff;stroke:#ff0;stroke-width:2px;"/></svg>