<?xml version="1.0" encoding="UTF-8" standalone="no"?><!DOCTYPE svg PUBLIC "-//W3C//DTD SVG 1.1//EN" "http://www.w3.org/Graphics/SVG/1.1/DTD/svg11.dtd"><svg width="100%" height="100%" viewBox="0 0 19 25" version="1.1" xmlns="http://www.w3.org/2000/svg" xmlns:xlink="http://www.w3.org/1999/xlink" xml:space="preserve" xmlns:serif="http://www.serif.com/" style="fill-rule:evenodd;clip-rule:evenodd;stroke-linejoin:round;stroke-miterlimit:2;"><path id="path6" d="M22,25l0,-25l-25,0c-0.075,0 0,0.73 0,1.5l0,23.5l25,0Zm-1.5,-21.5l0,18.667c0,0.277 -1.169,1.5 -2,1.5l0,0.133c-0.831,0 -17.5,-0.023 -17.5,-0.3l0,-22.333c0,-0.277 15.669,-0.167 16.5,-0.167c0.831,0 3,1.669 3,2.5Z" style="fill:#140083;fill-rule:nonzero;"/><g id="rect2"><path d="M9,24l-8.895,0c-1.37,0 -2.106,-0.862 -2.106,-1.923l0,-19.154c0,-1.061 0.735,-1.923 2.106,-1.923l8.895,0l0,23Z" style="fill:url(#_Linear1);"/><path d="M8.986,1.006l9.704,0c1.495,0 2.297,0.862 2.297,1.923l0,19.154c0,1.061 -0.802,1.923 -2.297,1.923l-9.704,0l0,-23Z" style="fill:url(#_Linear2);"/></g><defs><linearGradient id="_Linear1" x1="0" y1="0" x2="1" y2="0" gradientUnits="userSpaceOnUse" gradientTransform="matrix(-16.999258,0,-0,-16.999258,18.000131,13.602741)"><stop offset="0" style="stop-color:#0065c9;stop-opacity:1"/><stop offset="1" style="stop-color:#0065c9;stop-opacity:1"/></linearGradient><linearGradient id="_Linear2" x1="0" y1="0" x2="1" y2="0" gradientUnits="userSpaceOnUse" gradientTransform="matrix(18.544505,0,0,18.544505,-0.832481,11.403578)"><stop offset="0" style="stop-color:#0065c9;stop-opacity:1"/><stop offset="1" style="stop-color:#0065c9;stop-opacity:1"/></linearGradient></defs></svg>