<?xml version="1.0" encoding="UTF-8" standalone="no"?><!DOCTYPE svg PUBLIC "-//W3C//DTD SVG 1.1//EN" "http://www.w3.org/Graphics/SVG/1.1/DTD/svg11.dtd"><svg width="100%" height="100%" viewBox="0 0 25 25" version="1.1" xmlns="http://www.w3.org/2000/svg" xmlns:xlink="http://www.w3.org/1999/xlink" xml:space="preserve" xmlns:serif="http://www.serif.com/" style="fill-rule:evenodd;clip-rule:evenodd;stroke-linejoin:round;stroke-miterlimit:2;"><path id="path6" d="M-0,0l0,25l19.5,-0c0.075,0 3.923,-0.001 4,-0.003c0.77,-0.02 1.5,-0.727 1.5,-1.497l-0,-22c0,-0.795 -0.705,-1.5 -1.5,-1.5l-23.5,0Zm1.5,21.5l-0,-18.667c0,-0.277 1.169,-1.5 2,-1.5l0,-0.133c0.831,0 17.5,0.023 17.5,0.3l0,22.333c0,0.277 -15.669,0.167 -16.5,0.167c-0.831,0 -3,-1.669 -3,-2.5Z" style="fill:#140083;fill-rule:nonzero;"/><g id="rect2"><path d="M1,1l20.895,-0c1.37,0 2.106,0.862 2.106,1.923l0,19.154c0,1.061 -0.735,1.923 -2.106,1.923l-20.895,0l-0,-23Z" style="fill:url(#_Linear1);"/><path d="M20,12.504l-11.007,9.492l0.013,-19l10.993,9.508l0.001,0Z" style="fill:#ebebeb;"/></g><defs><linearGradient id="_Linear1" x1="0" y1="0" x2="1" y2="0" gradientUnits="userSpaceOnUse" gradientTransform="matrix(16.999258,-0,0,16.999258,3.999869,11.397259)"><stop offset="0" style="stop-color:#74baff;stop-opacity:1"/><stop offset="1" style="stop-color:#0066a2;stop-opacity:1"/></linearGradient></defs></svg>