<?xml version="1.0" encoding="UTF-8" standalone="no"?><!DOCTYPE svg PUBLIC "-//W3C//DTD SVG 1.1//EN" "http://www.w3.org/Graphics/SVG/1.1/DTD/svg11.dtd"><svg width="100%" height="100%" viewBox="0 0 25 25" version="1.1" xmlns="http://www.w3.org/2000/svg" xmlns:xlink="http://www.w3.org/1999/xlink" xml:space="preserve" xmlns:serif="http://www.serif.com/" style="fill-rule:evenodd;clip-rule:evenodd;stroke-linejoin:round;stroke-miterlimit:2;"><path id="path6" d="M25,0l-25,0l0,19.5c0,0.075 0.001,3.923 0.003,4c0.02,0.77 0.727,1.5 1.497,1.5l22,0c0.795,0 1.5,-0.705 1.5,-1.5l0,-23.5Zm-21.5,1.5l18.667,0c0.277,0 1.5,1.169 1.5,2l0.133,0c0,0.831 -0.023,17.5 -0.3,17.5l-22.333,0c-0.277,0 -0.167,-15.669 -0.167,-16.5c0,-0.831 1.669,-3 2.5,-3Z" style="fill:#140083;fill-rule:nonzero;"/><g id="rect2"><path d="M24,1l0,20.895c0,1.37 -0.862,2.106 -1.923,2.106l-19.154,0c-1.061,0 -1.923,-0.735 -1.923,-2.106l0,-20.895l23,0Z" style="fill:url(#_Linear1);"/><path d="M12.496,20l-9.492,-11.007l19,0.013l-9.508,10.993l0,0.001Z" style="fill:#ebebeb;"/></g><defs><linearGradient id="_Linear1" x1="0" y1="0" x2="1" y2="0" gradientUnits="userSpaceOnUse" gradientTransform="matrix(0,16.999258,-16.999258,0,13.602741,3.999869)"><stop offset="0" style="stop-color:#74baff;stop-opacity:1"/><stop offset="1" style="stop-color:#0065c9;stop-opacity:1"/></linearGradient></defs></svg>