<?xml version="1.0" encoding="UTF-8" standalone="no"?><!DOCTYPE svg PUBLIC "-//W3C//DTD SVG 1.1//EN" "http://www.w3.org/Graphics/SVG/1.1/DTD/svg11.dtd"><svg width="100%" height="100%" viewBox="0 0 25 3" version="1.1" xmlns="http://www.w3.org/2000/svg" xmlns:xlink="http://www.w3.org/1999/xlink" xml:space="preserve" xmlns:serif="http://www.serif.com/" style="fill-rule:evenodd;clip-rule:evenodd;stroke-linejoin:round;stroke-miterlimit:2;"><path id="path6" d="M0,3l25,-0l0,-25c0,-0.075 -0.73,0 -1.5,0l-23.5,0l0,25Zm21.5,-1.5l-18.667,0c-0.277,0 -1.5,-1.169 -1.5,-2l-0.133,0c0,-0.831 0.023,-17.5 0.3,-17.5l22.333,0c0.277,0 0.167,15.669 0.167,16.5c0,0.831 -1.669,3 -2.5,3Z" style="fill:#140083;fill-rule:nonzero;"/><g id="rect2"><path d="M23.994,-10.014l0,9.704c0,1.495 -0.862,2.297 -1.923,2.297l-19.154,0c-1.061,0 -1.923,-0.802 -1.923,-2.297l0,-9.704l23,-0Z" style="fill:url(#_Linear1);"/></g><defs><linearGradient id="_Linear1" x1="0" y1="0" x2="1" y2="0" gradientUnits="userSpaceOnUse" gradientTransform="matrix(0,18.544505,-18.544505,0,13.596422,-19.832481)"><stop offset="0" style="stop-color:#74baff;stop-opacity:1"/><stop offset="1" style="stop-color:#0065c9;stop-opacity:1"/></linearGradient></defs></svg>