<?xml version="1.0" encoding="UTF-8" standalone="no"?><!DOCTYPE svg PUBLIC "-//W3C//DTD SVG 1.1//EN" "http://www.w3.org/Graphics/SVG/1.1/DTD/svg11.dtd"><svg width="100%" height="100%" viewBox="0 0 20 1" version="1.1" xmlns="http://www.w3.org/2000/svg" xmlns:xlink="http://www.w3.org/1999/xlink" xml:space="preserve" xmlns:serif="http://www.serif.com/" style="fill-rule:evenodd;clip-rule:evenodd;stroke-linejoin:round;stroke-miterlimit:2;"><path d="M20,0.5c0,0.276 -1.224,0.5 -1.5,0.5l-17,0c-0.276,0 -1.5,-0.224 -1.5,-0.5c0,-0.276 1.224,-0.5 1.5,-0.5l17,0c0.276,0 1.5,0.224 1.5,0.5Z" style="fill:#489ab1;"/><path d="M19.551,0.508c0,0.069 -0.056,0.125 -0.125,0.125l-18.75,0c-0.069,0 -0.125,-0.056 -0.125,-0.125c0,-0.069 0.056,-0.125 0.125,-0.125l18.75,0c0.069,0 0.125,0.056 0.125,0.125Z" style="fill:#fff;"/></svg>