<?xml version="1.0" encoding="UTF-8" standalone="no"?><!DOCTYPE svg PUBLIC "-//W3C//DTD SVG 1.1//EN" "http://www.w3.org/Graphics/SVG/1.1/DTD/svg11.dtd"><svg width="100%" height="100%" viewBox="0 0 75 25" version="1.1" xmlns="http://www.w3.org/2000/svg" xmlns:xlink="http://www.w3.org/1999/xlink" xml:space="preserve" xmlns:serif="http://www.serif.com/" style="fill-rule:evenodd;clip-rule:evenodd;stroke-linejoin:round;stroke-miterlimit:2;"><path id="path6" d="M5.5,0c-2.385,0 -5.5,3.115 -5.5,5.5l0,14c0,2.385 3.115,5.5 5.5,5.5l64,0c2.385,0 5.5,-3.115 5.5,-5.5l0,-14c0,-2.385 -3.115,-5.5 -5.5,-5.5l-64,0Zm-1,2l65,0c0.831,0 1.5,-0.331 1.5,0.5l0,1c0,0.831 0.331,17.5 -0.5,17.5l-67,0c-0.831,0 -0.5,-15.669 -0.5,-16.5l0,-1c0,-0.831 0.669,-1.5 1.5,-1.5Z" style="fill:#140083;fill-rule:nonzero;"/><g id="rect2"><path d="M74,7.106l0,10.789c0,3.37 -2.735,6.106 -6.103,6.106l-60.794,0c-3.368,0 -6.103,-2.735 -6.103,-6.106l0,-10.789c0,-3.37 2.735,-6.106 6.103,-6.106l60.794,0c3.368,0 6.103,2.735 6.103,6.106Z" style="fill:url(#_Linear1);"/></g><defs><linearGradient id="_Linear1" x1="0" y1="0" x2="1" y2="0" gradientUnits="userSpaceOnUse" gradientTransform="matrix(0,3,-3,0,41,21)"><stop offset="0" style="stop-color:#fff;stop-opacity:1"/><stop offset="1" style="stop-color:#0065c9;stop-opacity:1"/></linearGradient></defs></svg>